<svg width="80" height="36" viewBox="0 0 80 36" fill="none" xmlns="http://www.w3.org/2000/svg">
<path d="M34.25 18.25C34.25 19.6 34.55 20.7917 35.15 21.825C35.7667 22.8583 36.5667 23.6667 37.55 24.25C38.5333 24.8333 39.6 25.125 40.75 25.125C41.5833 25.125 42.3417 25.0167 43.025 24.8C43.725 24.5833 44.3583 24.2833 44.925 23.9C45.4917 23.5 45.975 23.0417 46.375 22.525V25.325C45.6417 25.975 44.8417 26.4583 43.975 26.775C43.1083 27.0917 42.0333 27.25 40.75 27.25C39.5333 27.25 38.3917 27.0333 37.325 26.6C36.275 26.15 35.35 25.525 34.55 24.725C33.75 23.9083 33.125 22.95 32.675 21.85C32.225 20.75 32 19.55 32 18.25C32 16.95 32.225 15.75 32.675 14.65C33.125 13.55 33.75 12.6 34.55 11.8C35.35 10.9833 36.275 10.3583 37.325 9.925C38.3917 9.475 39.5333 9.25 40.75 9.25C42.0333 9.25 43.1083 9.40833 43.975 9.725C44.8417 10.0417 45.6417 10.525 46.375 11.175V13.975C45.975 13.4583 45.4917 13.0083 44.925 12.625C44.3583 12.225 43.725 11.9167 43.025 11.7C42.3417 11.4833 41.5833 11.375 40.75 11.375C39.6 11.375 38.5333 11.6667 37.55 12.25C36.5667 12.8333 35.7667 13.6417 35.15 14.675C34.55 15.6917 34.25 16.8833 34.25 18.25ZM51.9893 22.5C51.9893 23.4167 52.1976 24.125 52.6143 24.625C53.0309 25.125 53.6393 25.375 54.4393 25.375C55.0226 25.375 55.5309 25.2583 55.9643 25.025C56.4143 24.775 56.7559 24.4333 56.9893 24C57.2393 23.5667 57.3643 23.0667 57.3643 22.5V15.5H59.3643V27H57.3643V25.2C56.9809 25.8833 56.5059 26.4 55.9393 26.75C55.3726 27.0833 54.7059 27.25 53.9393 27.25C52.7393 27.25 51.7809 26.8417 51.0643 26.025C50.3476 25.2083 49.9893 24.1167 49.9893 22.75V15.5H51.9893V22.5ZM61.374 15.5H67.124V17.375H61.374V15.5ZM63.249 11.5H65.249V27H63.249V11.5ZM69.1299 10.75C69.1299 10.3667 69.2632 10.0417 69.5299 9.775C69.8132 9.50833 70.1382 9.375 70.5049 9.375C70.8882 9.375 71.2132 9.50833 71.4799 9.775C71.7465 10.0417 71.8799 10.3667 71.8799 10.75C71.8799 11.1167 71.7465 11.4417 71.4799 11.725C71.2132 11.9917 70.8882 12.125 70.5049 12.125C70.1382 12.125 69.8132 11.9917 69.5299 11.725C69.2632 11.4417 69.1299 11.1167 69.1299 10.75ZM69.5049 15.5H71.5049V27H69.5049V15.5ZM73.874 15.5H79.624V17.375H73.874V15.5ZM75.749 11.5H77.749V27H75.749V11.5Z" fill="white"/>
<circle cx="13.7906" cy="23.5679" r="4.54544" fill="white" stroke="white" stroke-width="1.5"/>
<path d="M17.2069 22.1317C17.3824 22.0579 17.4662 21.8549 17.3777 21.6862C17.0574 21.0756 16.5855 20.5551 16.005 20.176C15.4245 19.797 14.758 19.5744 14.0702 19.5268C13.8802 19.5136 13.728 19.672 13.731 19.8624C13.7341 20.0529 13.8913 20.203 14.0811 20.2194C14.6311 20.2672 15.1627 20.4499 15.6279 20.7536C16.0931 21.0573 16.4743 21.4706 16.7392 21.9549C16.8306 22.122 17.0313 22.2055 17.2069 22.1317Z" fill="#EBEBEB" stroke="#EBEBEB" stroke-width="1.5" stroke-linejoin="round"/>
<path d="M1.21387 30.1323V32.0007C1.21387 32.553 1.66158 33.0007 2.21387 33.0007H3.99909" stroke="white" stroke-width="1.5" stroke-linecap="round"/>
<path d="M27.084 30.1323V32.0007C27.084 32.553 26.6363 33.0007 26.084 33.0007H24.2988" stroke="white" stroke-width="1.5" stroke-linecap="round"/>
<mask id="path-6-inside-1_159_1139" fill="white">
<rect x="0.662109" y="9.77783" width="26.9145" height="4.85415" rx="1"/>
</mask>
<rect x="0.662109" y="9.77783" width="26.9145" height="4.85415" rx="1" stroke="white" stroke-width="3" mask="url(#path-6-inside-1_159_1139)"/>
<line y1="-0.75" x2="7.48363" y2="-0.75" transform="matrix(0.832336 0.554272 -0.787915 0.615784 1.33887 10.3745)" stroke="white" stroke-width="1.5"/>
<line y1="-0.75" x2="7.48363" y2="-0.75" transform="matrix(0.832336 0.554272 -0.787915 0.615784 5.91406 10.3745)" stroke="white" stroke-width="1.5"/>
<line y1="-0.75" x2="7.48363" y2="-0.75" transform="matrix(0.832336 0.554272 -0.787915 0.615784 10.4883 10.3745)" stroke="white" stroke-width="1.5"/>
<line y1="-0.75" x2="7.48363" y2="-0.75" transform="matrix(0.832336 0.554272 -0.787915 0.615784 15.0635 10.3745)" stroke="white" stroke-width="1.5"/>
<line y1="-0.75" x2="7.48363" y2="-0.75" transform="matrix(0.832336 0.554272 -0.787915 0.615784 19.6387 10.3745)" stroke="white" stroke-width="1.5"/>
<mask id="path-12-inside-2_159_1139" fill="white">
<rect width="26.9145" height="4.85415" rx="1" transform="matrix(0.991155 -0.132711 -0.132711 -0.991155 0.644531 10.3828)"/>
</mask>
<rect width="26.9145" height="4.85415" rx="1" transform="matrix(0.991155 -0.132711 -0.132711 -0.991155 0.644531 10.3828)" stroke="white" stroke-width="3" mask="url(#path-12-inside-2_159_1139)"/>
<line y1="-0.75" x2="7.48363" y2="-0.75" transform="matrix(0.751415 -0.659829 -0.862667 -0.505772 1.2373 9.70117)" stroke="white" stroke-width="1.5"/>
<line y1="-0.75" x2="7.48363" y2="-0.75" transform="matrix(0.751415 -0.659829 -0.862667 -0.505772 5.77148 9.09375)" stroke="white" stroke-width="1.5"/>
<line y1="-0.75" x2="7.48363" y2="-0.75" transform="matrix(0.751415 -0.659829 -0.862667 -0.505772 10.3057 8.4873)" stroke="white" stroke-width="1.5"/>
<line y1="-0.75" x2="7.48363" y2="-0.75" transform="matrix(0.751415 -0.659829 -0.862667 -0.505772 14.8398 7.87988)" stroke="white" stroke-width="1.5"/>
<line y1="-0.75" x2="7.48363" y2="-0.75" transform="matrix(0.751415 -0.659829 -0.862667 -0.505772 19.374 7.27295)" stroke="white" stroke-width="1.5"/>
</svg>
